<svg xmlns="http://www.w3.org/2000/svg" viewBox="0 0 128 128" fill="none">
  <defs>
    <linearGradient id="bg" x1="64" y1="0" x2="64" y2="128">
      <stop offset="0%" stop-color="#120810"/>
      <stop offset="100%" stop-color="#050a14"/>
    </linearGradient>
    <linearGradient id="mask" x1="40" y1="40" x2="90" y2="100">
      <stop offset="0%" stop-color="#ff4d6a"/>
      <stop offset="100%" stop-color="#c41e3a"/>
    </linearGradient>
  </defs>
  <rect width="128" height="128" fill="url(#bg)"/>
  <circle cx="64" cy="64" r="52" stroke="#ff4d6a" stroke-width="2" opacity="0.4"/>
  <!-- horns -->
  <path d="M42 48 L36 18 L50 44 Z" fill="#ff4d6a"/>
  <path d="M86 48 L92 18 L78 44 Z" fill="#ff4d6a"/>
  <!-- head/mask -->
  <ellipse cx="64" cy="68" rx="28" ry="32" fill="url(#mask)"/>
  <!-- eye slits -->
  <path d="M42 66c6-4 14-4 18 0" stroke="#050a14" stroke-width="3.5" stroke-linecap="round"/>
  <path d="M68 66c6-4 14-4 18 0" stroke="#050a14" stroke-width="3.5" stroke-linecap="round"/>
  <!-- radar lines -->
  <path d="M48 78c8 6 24 6 32 0" stroke="#fff" stroke-width="1.5" opacity="0.5"/>
  <path d="M52 86c6 4 18 4 24 0" stroke="#fff" stroke-width="1" opacity="0.3"/>
  <!-- collar -->
  <path d="M36 112c10-16 18-22 28-22s18 6 28 22" fill="#1a0810" stroke="#ff4d6a" stroke-width="1.5"/>
  <text x="64" y="122" text-anchor="middle" fill="#ff4d6a" font-family="monospace" font-size="7" letter-spacing="1">ESP</text>
</svg>
